<svg xmlns="http://www.w3.org/2000/svg" viewBox="0 0 400 300">
<defs><radialGradient id="bg" cx="50%" cy="40%" r="70%"><stop offset="0%" stop-color="#091a3a"/><stop offset="100%" stop-color="#090b1a"/></radialGradient></defs>
<rect width="400" height="300" fill="url(#bg)"/>
<circle cx="25" cy="12" r="1.5" fill="white" opacity="0.8"/><circle cx="160" cy="20" r="1.5" fill="white" opacity="0.7"/><circle cx="265" cy="18" r="1.5" fill="white" opacity="0.8"/><circle cx="375" cy="25" r="2" fill="white" opacity="0.5"/><circle cx="8" cy="195" r="1" fill="white" opacity="0.5"/><circle cx="360" cy="258" r="2" fill="white" opacity="0.6"/>
<!-- star map grid --><rect x="60" y="60" width="280" height="195" rx="8" fill="#0d1430" stroke="#5de2ff" stroke-width="1" opacity="0.8"/>
<!-- grid lines --><line x1="60" y1="99" x2="340" y2="99" stroke="#5de2ff" stroke-width="0.5" opacity="0.3"/>
<line x1="60" y1="138" x2="340" y2="138" stroke="#5de2ff" stroke-width="0.5" opacity="0.3"/>
<line x1="60" y1="177" x2="340" y2="177" stroke="#5de2ff" stroke-width="0.5" opacity="0.3"/>
<line x1="60" y1="216" x2="340" y2="216" stroke="#5de2ff" stroke-width="0.5" opacity="0.3"/>
<line x1="116" y1="60" x2="116" y2="255" stroke="#5de2ff" stroke-width="0.5" opacity="0.3"/>
<line x1="172" y1="60" x2="172" y2="255" stroke="#5de2ff" stroke-width="0.5" opacity="0.3"/>
<line x1="228" y1="60" x2="228" y2="255" stroke="#5de2ff" stroke-width="0.5" opacity="0.3"/>
<line x1="284" y1="60" x2="284" y2="255" stroke="#5de2ff" stroke-width="0.5" opacity="0.3"/>
<!-- present stars --><circle cx="116" cy="99" r="7" fill="#ffcc00"/><circle cx="228" cy="138" r="5" fill="#ffcc00" opacity="0.5"/><circle cx="172" cy="216" r="6" fill="#ffcc00"/>
<!-- missing stars (dashed circles) --><circle cx="284" cy="99" r="7" fill="none" stroke="#ff6f91" stroke-width="1.5" stroke-dasharray="3,3"/><circle cx="116" cy="177" r="5" fill="none" stroke="#ff6f91" stroke-width="1.5" stroke-dasharray="3,3"/><circle cx="284" cy="216" r="6" fill="none" stroke="#ff6f91" stroke-width="1.5" stroke-dasharray="3,3"/>
<text x="200" y="276" text-anchor="middle" font-family="Arial,sans-serif" font-size="14" font-weight="bold" fill="#5de2ff">MAPA ESTELAR DANIFICADO</text>
</svg>
